# xmcd
#
# Track frame offsets:
#	150
#	11105
#	22735
#	35332
#	47672
#	57737
#	67942
#	78512
#	90880
#	102822
#	112690
#	124037
#	132232
#	139835
#	150737
#	162782
#	172142
#	180835
#	191935
#	203237
# Disc length: 2839 seconds
# Revision: 8
# Processed by: cddbd v1.5.1PL2 Copyright (c) Steve Scherf et al.
#
# Submitted via: libkcddb 0.21
#
DISCID=000b1514
DTITLE=Johnny Cash - Country Gold
DYEAR=1995
DGENRE=Country
TTITLE0=Cry Cry Cry
TTITLE1=So Doggone Lonesome
TTITLE2=Folsom Prison Blues
TTITLE3=I Walk The Line
TTITLE4=Get Rythm
TTITLE5=There You Go
TTITLE6=Train Of Love
TTITLE7=Next In Line
TTITLE8=Home Of The Blues
TTITLE9=Ballad Of A Teenage Queen
TTITLE10=Gid River
TTITLE11=Guess Things Happen That Way
TTITLE12=Come In Stranger
TTITLE13=The Ways Of A Woman In Love
TTITLE14=You're The Nearest Thing To Heaven
TTITLE15=Luther Played The Boogie
TTITLE16=Katy Too
TTITLE17=I Love You Because
TTITLE18=Oh, Lonesome Me
TTITLE19=Rock Island Line
EXTD=(c)1995  Disky Communications Ld NL
EXTD=upc 8711539640026 YEAR: 1995
EXTD=ID3G: 2
EXTT0=
EXTT1=
EXTT2=
EXTT3=
EXTT4=
EXTT5=
EXTT6=
EXTT7=
EXTT8=
EXTT9=
EXTT10=
EXTT11=
EXTT12=
EXTT13=
EXTT14=
EXTT15=
EXTT16=
EXTT17=
EXTT18=
EXTT19=
PLAYORDER=
